# xmcd
#
# Track frame offsets: 
#        183
#        20293
#        47830
#        79433
#        106060
#        128238
#        148688
#        180463
#
# Disc length: 2671 seconds
#
# Revision: 1
# Processed by: cddbd v1.5.2PL0 Copyright (c) Steve Scherf et al.
# Submitted via: ExactAudioCopy v0.95b4
#
DISCID=650a6d08
DTITLE=Billy Pierce - William The Conqueror
DYEAR=1985
DGENRE=Jazz
TTITLE0=Blue Nostalgia
TTITLE1=Pannonica'
TTITLE2=Color Blind
TTITLE3=Over the Edge
TTITLE4=William The Conqueror
TTITLE5=Sudan Blue
TTITLE6=We'll Be Together Again
TTITLE7=Nature Folksong
EXTD=YEAR: 1985
EXTT0=
EXTT1=
EXTT2=
EXTT3=
EXTT4=
EXTT5=
EXTT6=
EXTT7=
PLAYORDER=
